<svg width="30" height="60" xmlns="http://www.w3.org/2000/svg">
  <!-- Верёвка -->
  <path d="M 13 0 Q 12 3 13 6 Q 14 9 13 12" 
        stroke="#C9A870" 
        stroke-width="2" 
        fill="none"
        stroke-linecap="round"/>
  <path d="M 17 0 Q 18 3 17 6 Q 16 9 17 12" 
        stroke="#C9A870" 
        stroke-width="2" 
        fill="none"
        stroke-linecap="round"/>
  
  <!-- Узел верхний -->
  <ellipse cx="15" cy="13" rx="6" ry="3" fill="#D4AF77"/>
  <ellipse cx="15" cy="13" rx="6" ry="2.5" fill="#C9A870"/>
  
  <!-- Узел средний (утолщение) -->
  <ellipse cx="15" cy="17" rx="7" ry="4" fill="#B8956A"/>
  <ellipse cx="15" cy="17" rx="7" ry="3.5" fill="#C9A870"/>
  
  <!-- Декоративная обмотка -->
  <line x1="8" y1="19" x2="22" y2="19" stroke="#B8956A" stroke-width="1"/>
  <line x1="8" y1="20.5" x2="22" y2="20.5" stroke="#D4AF77" stroke-width="0.8"/>
  <line x1="8" y1="22" x2="22" y2="22" stroke="#B8956A" stroke-width="1"/>
  <line x1="8" y1="23.5" x2="22" y2="23.5" stroke="#D4AF77" stroke-width="0.8"/>
  
  <!-- Узел нижний (перед кисточкой) -->
  <ellipse cx="15" cy="26" rx="6.5" ry="3.5" fill="#D4AF77"/>
  <ellipse cx="15" cy="26" rx="6.5" ry="3" fill="#C9A870"/>
  
  <!-- Кисточка (множество нитей) -->
  <g opacity="0.9">
    <!-- Центральные нити -->
    <path d="M 15 28 L 15 58" stroke="#D4AF77" stroke-width="1.2" stroke-linecap="round"/>
    <path d="M 13 28 L 12 56" stroke="#C9A870" stroke-width="1" stroke-linecap="round"/>
    <path d="M 17 28 L 18 56" stroke="#C9A870" stroke-width="1" stroke-linecap="round"/>
    
    <!-- Левая группа нитей -->
    <path d="M 11 28 L 9 54" stroke="#D4AF77" stroke-width="0.8" stroke-linecap="round"/>
    <path d="M 10 28 L 8 55" stroke="#B8956A" stroke-width="0.8" stroke-linecap="round"/>
    <path d="M 9 28 L 7 53" stroke="#C9A870" stroke-width="0.7" stroke-linecap="round"/>
    <path d="M 8 28 L 6 52" stroke="#D4AF77" stroke-width="0.7" stroke-linecap="round"/>
    
    <!-- Правая группа нитей -->
    <path d="M 19 28 L 21 54" stroke="#D4AF77" stroke-width="0.8" stroke-linecap="round"/>
    <path d="M 20 28 L 22 55" stroke="#B8956A" stroke-width="0.8" stroke-linecap="round"/>
    <path d="M 21 28 L 23 53" stroke="#C9A870" stroke-width="0.7" stroke-linecap="round"/>
    <path d="M 22 28 L 24 52" stroke="#D4AF77" stroke-width="0.7" stroke-linecap="round"/>
    
    <!-- Дополнительные тонкие нити для густоты -->
    <path d="M 12 28 L 11 57" stroke="#D4AF77" stroke-width="0.6" stroke-linecap="round" opacity="0.7"/>
    <path d="M 14 28 L 13 58" stroke="#C9A870" stroke-width="0.6" stroke-linecap="round" opacity="0.7"/>
    <path d="M 16 28 L 17 58" stroke="#C9A870" stroke-width="0.6" stroke-linecap="round" opacity="0.7"/>
    <path d="M 18 28 L 19 57" stroke="#D4AF77" stroke-width="0.6" stroke-linecap="round" opacity="0.7"/>
  </g>
  
  <!-- Блики на узлах для объема -->
  <ellipse cx="15" cy="16.5" rx="4" ry="1.5" fill="rgba(255,255,255,0.2)"/>
  <ellipse cx="15" cy="25.5" rx="3.5" ry="1.2" fill="rgba(255,255,255,0.15)"/>
</svg>

