<svg xmlns="http://www.w3.org/2000/svg" viewBox="0 0 80 80" width="80" height="80">
  <defs>
    <linearGradient id="starGradient" x1="0%" y1="0%" x2="100%" y2="100%">
      <stop offset="0%" style="stop-color:#FFD700;stop-opacity:1" />
      <stop offset="50%" style="stop-color:#FFA500;stop-opacity:1" />
      <stop offset="100%" style="stop-color:#FF8C00;stop-opacity:1" />
    </linearGradient>
    <filter id="starGlow">
      <feGaussianBlur stdDeviation="2" result="coloredBlur"/>
      <feMerge> 
        <feMergeNode in="coloredBlur"/>
        <feMergeNode in="SourceGraphic"/>
      </feMerge>
    </filter>
  </defs>
  
  <!-- Звезда -->
  <path d="M40 5 L48 25 L70 25 L52 40 L60 60 L40 45 L20 60 L28 40 L10 25 L32 25 Z" 
        fill="url(#starGradient)" 
        stroke="#FF8C00" 
        stroke-width="1"
        filter="url(#starGlow)"/>
  
  <!-- Внутренняя звезда -->
  <path d="M40 15 L45 28 L58 28 L47 36 L52 49 L40 42 L28 49 L33 36 L22 28 L35 28 Z" 
        fill="#FFF8DC" 
        opacity="0.7"/>
  
  <!-- Блестки -->
  <circle cx="25" cy="20" r="1" fill="#FFD700" opacity="0.8"/>
  <circle cx="55" cy="15" r="1" fill="#FFD700" opacity="0.8"/>
  <circle cx="15" cy="45" r="1" fill="#FFD700" opacity="0.8"/>
  <circle cx="65" cy="50" r="1" fill="#FFD700" opacity="0.8"/>
  <circle cx="30" cy="60" r="1" fill="#FFD700" opacity="0.8"/>
  <circle cx="50" cy="65" r="1" fill="#FFD700" opacity="0.8"/>
</svg>
